<svg class="main-svg" xmlns="http://www.w3.org/2000/svg" xmlns:xlink="http://www.w3.org/1999/xlink" width="800" height="600"><rect x="0" y="0" width="800" height="600" style="fill: rgb(255, 255, 255); fill-opacity: 1;"/><defs id="defs-6bba99"><g class="gradients"/><g class="clips"><clipPath class="axesclip" id="clip6bba99x"><rect x="60" y="0" width="617" height="600"/></clipPath><clipPath class="axesclip" id="clip6bba99y"><rect x="0" y="25" width="800" height="535"/></clipPath><clipPath class="axesclip" id="clip6bba99xy"><rect x="60" y="25" width="617" height="535"/></clipPath><clipPath class="axesclip" id="clip6bba99y2"><rect x="0" y="25" width="800" height="535"/></clipPath><clipPath class="axesclip" id="clip6bba99xy2"><rect x="60" y="25" width="617" height="535"/></clipPath><clipPath class="plotclip" id="clip6bba99xyplot"><rect width="617" height="535"/></clipPath><clipPath class="plotclip" id="clip6bba99xy2plot"><rect width="617" height="535"/></clipPath></g></defs><g class="bglayer"><rect class="bg" x="60" y="25" width="617" height="535" style="fill: rgb(255, 255, 255); fill-opacity: 1; stroke-width: 0;"/></g><g class="layer-below"><g class="imagelayer"/><g class="shapelayer"/></g><g class="cartesianlayer"><g class="subplot xy"><g class="layer-subplot"><g class="shapelayer"/><g class="imagelayer"/></g><g class="gridlayer" transform="translate(60,25)"><path class="xgrid crisp" d="M0,0v535" transform="translate(85.38,0)" style="stroke: rgb(238, 238, 238); stroke-opacity: 1; stroke-width: 1px;"/><path class="xgrid crisp" d="M0,0v535" transform="translate(172.18,0)" style="stroke: rgb(238, 238, 238); stroke-opacity: 1; stroke-width: 1px;"/><path class="xgrid crisp" d="M0,0v535" transform="translate(257.56,0)" style="stroke: rgb(238, 238, 238); stroke-opacity: 1; stroke-width: 1px;"/><path class="xgrid crisp" d="M0,0v535" transform="translate(344.35,0)" style="stroke: rgb(238, 238, 238); stroke-opacity: 1; stroke-width: 1px;"/><path class="xgrid crisp" d="M0,0v535" transform="translate(429.73,0)" style="stroke: rgb(238, 238, 238); stroke-opacity: 1; stroke-width: 1px;"/><path class="xgrid crisp" d="M0,0v535" transform="translate(516.53,0)" style="stroke: rgb(238, 238, 238); stroke-opacity: 1; stroke-width: 1px;"/><path class="xgrid crisp" d="M0,0v535" transform="translate(602.38,0)" style="stroke: rgb(238, 238, 238); stroke-opacity: 1; stroke-width: 1px;"/><path class="ygrid crisp" d="M0,0h617" transform="translate(0,445.83)" style="stroke: rgb(238, 238, 238); stroke-opacity: 1; stroke-width: 1px;"/><path class="ygrid crisp" d="M0,0h617" transform="translate(0,267.5)" style="stroke: rgb(238, 238, 238); stroke-opacity: 1; stroke-width: 1px;"/><path class="ygrid crisp" d="M0,0h617" transform="translate(0,178.33)" style="stroke: rgb(238, 238, 238); stroke-opacity: 1; stroke-width: 1px;"/><path class="ygrid crisp" d="M0,0h617" transform="translate(0,89.17)" style="stroke: rgb(238, 238, 238); stroke-opacity: 1; stroke-width: 1px;"/></g><g class="overgrid"><g class="xy2" transform="translate(60,25)"><path class="xgrid crisp" d="M0,0v535" transform="translate(85.38,0)" style="stroke: rgb(238, 238, 238); stroke-opacity: 1; stroke-width: 1px;"/><path class="xgrid crisp" d="M0,0v535" transform="translate(172.18,0)" style="stroke: rgb(238, 238, 238); stroke-opacity: 1; stroke-width: 1px;"/><path class="xgrid crisp" d="M0,0v535" transform="translate(257.56,0)" style="stroke: rgb(238, 238, 238); stroke-opacity: 1; stroke-width: 1px;"/><path class="xgrid crisp" d="M0,0v535" transform="translate(344.35,0)" style="stroke: rgb(238, 238, 238); stroke-opacity: 1; stroke-width: 1px;"/><path class="xgrid crisp" d="M0,0v535" transform="translate(429.73,0)" style="stroke: rgb(238, 238, 238); stroke-opacity: 1; stroke-width: 1px;"/><path class="xgrid crisp" d="M0,0v535" transform="translate(516.53,0)" style="stroke: rgb(238, 238, 238); stroke-opacity: 1; stroke-width: 1px;"/><path class="xgrid crisp" d="M0,0v535" transform="translate(602.38,0)" style="stroke: rgb(238, 238, 238); stroke-opacity: 1; stroke-width: 1px;"/><path class="y2grid crisp" d="M0,0h617" transform="translate(0,445.83)" style="stroke: rgb(238, 238, 238); stroke-opacity: 1; stroke-width: 1px;"/><path class="y2grid crisp" d="M0,0h617" transform="translate(0,267.5)" style="stroke: rgb(238, 238, 238); stroke-opacity: 1; stroke-width: 1px;"/><path class="y2grid crisp" d="M0,0h617" transform="translate(0,178.33)" style="stroke: rgb(238, 238, 238); stroke-opacity: 1; stroke-width: 1px;"/><path class="y2grid crisp" d="M0,0h617" transform="translate(0,89.17)" style="stroke: rgb(238, 238, 238); stroke-opacity: 1; stroke-width: 1px;"/></g></g><g class="zerolinelayer" transform="translate(60,25)"><path class="yzl zl crisp" d="M0,0h617" transform="translate(0,356.67)" style="stroke: rgb(68, 68, 68); stroke-opacity: 1; stroke-width: 1px;"/></g><g class="overzero"><g class="xy2" transform="translate(60,25)"><path class="y2zl zl crisp" d="M0,0h617" transform="translate(0,356.67)" style="stroke: rgb(68, 68, 68); stroke-opacity: 1; stroke-width: 1px;"/></g></g><g class="plot" transform="translate(60, 25)" clip-path="url(#clip6bba99xyplot)"><g class="imagelayer"/><g class="maplayer"/><g class="barlayer"/><g class="carpetlayer"/><g class="boxlayer"/><g class="scatterlayer"><g class="trace scatter tracea63c94" style="stroke-miterlimit: 2; opacity: 1;"><path class="js-line" d="M0,250.8L14.62,198.28L27.83,181.77L42.45,201.12L56.61,180.51L71.23,217.47L85.38,181.48L100,137.62L114.63,96.81L128.78,53.34L143.4,73.31L157.55,114.5L172.18,152.61L186.8,133.15L200.01,151.51L214.63,133.05L228.78,109.73L243.4,54.47L257.56,109.82L272.18,161.1L286.8,158.9L300.95,167.83L315.58,192.38L329.73,129.71L344.35,169.91L358.97,222.03L372.18,240.44L386.8,278.51L400.96,332.88L415.58,313.58L429.73,280.19L444.35,241.61L458.98,313.54L473.13,329.25L487.75,290.96L501.9,299.47L516.53,218.86L531.15,222.82L544.83,238.89L559.45,216.52L573.6,258.75L588.23,249.84L602.38,247.23L617,242.21" style="vector-effect: non-scaling-stroke; fill: none; stroke: rgb(98, 188, 96); stroke-opacity: 1; stroke-width: 2px; opacity: 1;"/><g class="points"/></g><g class="trace scatter trace8fbe20" style="stroke-miterlimit: 2; opacity: 1;"><path class="js-line" d="M0,218.05L14.62,198.6L27.83,189.1L42.45,201.21L56.61,175.61L71.23,223.76L85.38,216.23L100,193.78L114.63,148.84L128.78,100.17L143.4,101.58L157.55,141.78L172.18,186.8L186.8,166.54L200.01,190.89L214.63,190.33L228.78,170.82L243.4,124.38L257.56,144.89L272.18,159.39L286.8,184.54L300.95,197.06L315.58,216.31L329.73,140.36L344.35,165.57L358.97,196.85L372.18,188.72L386.8,207.68L400.96,268.19L415.58,260.69L429.73,264.36L444.35,251.6L458.98,274L473.13,278.59L487.75,258.12L501.9,279.12L516.53,210.5L531.15,215.8L544.83,226.18L559.45,202.28L573.6,202.57L588.23,197.54L602.38,205.16L617,209.39" style="vector-effect: non-scaling-stroke; fill: none; stroke: rgb(0, 123, 189); stroke-opacity: 1; stroke-width: 2px; opacity: 1;"/><g class="points"/></g></g></g><g class="overplot"><g class="xy2" transform="translate(60, 25)" clip-path="url(#clip6bba99xy2plot)"><g class="imagelayer"/><g class="maplayer"/><g class="barlayer"/><g class="carpetlayer"/><g class="boxlayer"/><g class="scatterlayer"><g class="trace scatter trace2ac1fd" style="stroke-miterlimit: 2; opacity: 1;"><path class="js-line" d="M0,420.21L14.62,316.15L27.83,292.14L42.45,317.51L56.61,326.65L71.23,303.6L85.38,209.76L100,132.62L114.63,135.51L128.78,142.83L143.4,203.97L157.55,217.27L172.18,207.42L186.8,206.74L200.01,194.74L214.63,138L228.78,119.08L243.4,79.94L257.56,195.8L272.18,312.55L286.8,235.57L300.95,228.61L315.58,248.88L329.73,270.28L344.35,321.86L358.97,390.87L372.18,465.59L386.8,523.87L400.96,522.52L415.58,484.85L429.73,380.3L444.35,299.99L458.98,452.74L473.13,484.7L487.75,428.95L501.9,398.25L516.53,345.26L531.15,342.79L544.83,363.55L559.45,362.88L573.6,494.96L588.23,477.27L602.38,445.29L617,418.56" style="vector-effect: non-scaling-stroke; fill: none; stroke: rgb(238, 66, 71); stroke-opacity: 1; stroke-width: 2px; opacity: 1;"/><g class="points"/></g></g></g></g><path class="xlines crisp" transform="translate(60,25)" d="M-1,535.5h619" style="fill: none; stroke-width: 1px; stroke: rgb(0, 0, 0); stroke-opacity: 0;"/><path class="ylines crisp" transform="translate(60,25)" d="M-0.5,-1v536" stroke-width="1px" style="fill: none; stroke: rgb(0, 0, 0); stroke-opacity: 0;"/><g class="overlines"><path class="xy2 crisp" transform="translate(60,25)" d="M617.5,-1v537" stroke-width="1px" style="fill: none; stroke-width: 1px; stroke: rgb(0, 0, 0); stroke-opacity: 0;"/></g><g class="xaxislayer" transform="translate(60,25)"><g class="xtick"><text text-anchor="middle" x="0" y="549" transform="translate(0,0)" style="font-family: 'Open Sans', verdana, arial, sans-serif; font-size: 12px; fill: rgb(68, 68, 68); fill-opacity: 1; visibility: visible; white-space: pre;" data-bb="72">Jan 2013</text></g><g class="xtick"><text text-anchor="middle" x="0" y="549" transform="translate(85.38,0)" style="font-family: 'Open Sans', verdana, arial, sans-serif; font-size: 12px; fill: rgb(68, 68, 68); fill-opacity: 1; visibility: visible; white-space: pre;" data-bb="73">Jul 2013</text></g><g class="xtick"><text text-anchor="middle" x="0" y="549" transform="translate(172.18,0)" style="font-family: 'Open Sans', verdana, arial, sans-serif; font-size: 12px; fill: rgb(68, 68, 68); fill-opacity: 1; visibility: visible; white-space: pre;" data-bb="74">Jan 2014</text></g><g class="xtick"><text text-anchor="middle" x="0" y="549" transform="translate(257.56,0)" style="font-family: 'Open Sans', verdana, arial, sans-serif; font-size: 12px; fill: rgb(68, 68, 68); fill-opacity: 1; visibility: visible; white-space: pre;" data-bb="75">Jul 2014</text></g><g class="xtick"><text text-anchor="middle" x="0" y="549" transform="translate(344.35,0)" style="font-family: 'Open Sans', verdana, arial, sans-serif; font-size: 12px; fill: rgb(68, 68, 68); fill-opacity: 1; visibility: visible; white-space: pre;" data-bb="76">Jan 2015</text></g><g class="xtick"><text text-anchor="middle" x="0" y="549" transform="translate(429.73,0)" style="font-family: 'Open Sans', verdana, arial, sans-serif; font-size: 12px; fill: rgb(68, 68, 68); fill-opacity: 1; visibility: visible; white-space: pre;" data-bb="77">Jul 2015</text></g><g class="xtick"><text text-anchor="middle" x="0" y="549" transform="translate(516.53,0)" style="font-family: 'Open Sans', verdana, arial, sans-serif; font-size: 12px; fill: rgb(68, 68, 68); fill-opacity: 1; visibility: visible; white-space: pre;" data-bb="78">Jan 2016</text></g><g class="xtick"><text text-anchor="middle" x="0" y="549" transform="translate(602.38,0)" style="font-family: 'Open Sans', verdana, arial, sans-serif; font-size: 12px; fill: rgb(68, 68, 68); fill-opacity: 1; visibility: visible; white-space: pre;" data-bb="79">Jul 2016</text></g></g><g class="yaxislayer" transform="translate(60,25)"><g class="ytick" data-bb="81"><text text-anchor="end" x="-2" y="6" transform="translate(0,535)" style="font-family: 'Open Sans', verdana, arial, sans-serif; font-size: 12px; fill: rgb(68, 68, 68); fill-opacity: 1; visibility: visible; white-space: pre;">−2</text></g><g class="ytick" data-bb="82"><text text-anchor="end" x="-2" y="6" transform="translate(0,445.83)" style="font-family: 'Open Sans', verdana, arial, sans-serif; font-size: 12px; fill: rgb(68, 68, 68); fill-opacity: 1; visibility: visible; white-space: pre;">−1</text></g><g class="ytick" data-bb="83"><text text-anchor="end" x="-2" y="6" transform="translate(0,356.67)" style="font-family: 'Open Sans', verdana, arial, sans-serif; font-size: 12px; fill: rgb(68, 68, 68); fill-opacity: 1; visibility: visible; white-space: pre;">0</text></g><g class="ytick" data-bb="84"><text text-anchor="end" x="-2" y="6" transform="translate(0,267.5)" style="font-family: 'Open Sans', verdana, arial, sans-serif; font-size: 12px; fill: rgb(68, 68, 68); fill-opacity: 1; visibility: visible; white-space: pre;">1</text></g><g class="ytick" data-bb="85"><text text-anchor="end" x="-2" y="6" transform="translate(0,178.33)" style="font-family: 'Open Sans', verdana, arial, sans-serif; font-size: 12px; fill: rgb(68, 68, 68); fill-opacity: 1; visibility: visible; white-space: pre;">2</text></g><g class="ytick" data-bb="86"><text text-anchor="end" x="-2" y="6" transform="translate(0,89.17)" style="font-family: 'Open Sans', verdana, arial, sans-serif; font-size: 12px; fill: rgb(68, 68, 68); fill-opacity: 1; visibility: visible; white-space: pre;">3</text></g><g class="ytick" data-bb="87"><text text-anchor="end" x="-2" y="6" transform="translate(0,0)" style="font-family: 'Open Sans', verdana, arial, sans-serif; font-size: 12px; fill: rgb(68, 68, 68); fill-opacity: 1; visibility: visible; white-space: pre;">4</text></g></g><g class="overaxes"><g class="xy2" transform="translate(60,25)"><g class="y2tick" data-bb="89"><text text-anchor="start" x="619" y="6" transform="translate(0,535)" style="font-family: 'Open Sans', verdana, arial, sans-serif; font-size: 12px; fill: rgb(255, 0, 0); fill-opacity: 1; visibility: visible; white-space: pre;">−8</text></g><g class="y2tick" data-bb="90"><text text-anchor="start" x="619" y="6" transform="translate(0,445.83)" style="font-family: 'Open Sans', verdana, arial, sans-serif; font-size: 12px; fill: rgb(255, 0, 0); fill-opacity: 1; visibility: visible; white-space: pre;">−4</text></g><g class="y2tick" data-bb="91"><text text-anchor="start" x="619" y="6" transform="translate(0,356.67)" style="font-family: 'Open Sans', verdana, arial, sans-serif; font-size: 12px; fill: rgb(255, 0, 0); fill-opacity: 1; visibility: visible; white-space: pre;">0</text></g><g class="y2tick" data-bb="92"><text text-anchor="start" x="619" y="6" transform="translate(0,267.5)" style="font-family: 'Open Sans', verdana, arial, sans-serif; font-size: 12px; fill: rgb(255, 0, 0); fill-opacity: 1; visibility: visible; white-space: pre;">4</text></g><g class="y2tick" data-bb="93"><text text-anchor="start" x="619" y="6" transform="translate(0,178.33)" style="font-family: 'Open Sans', verdana, arial, sans-serif; font-size: 12px; fill: rgb(255, 0, 0); fill-opacity: 1; visibility: visible; white-space: pre;">8</text></g><g class="y2tick" data-bb="94"><text text-anchor="start" x="619" y="6" transform="translate(0,89.17)" style="font-family: 'Open Sans', verdana, arial, sans-serif; font-size: 12px; fill: rgb(255, 0, 0); fill-opacity: 1; visibility: visible; white-space: pre;">12</text></g><g class="y2tick" data-bb="95"><text text-anchor="start" x="619" y="6" transform="translate(0,0)" style="font-family: 'Open Sans', verdana, arial, sans-serif; font-size: 12px; fill: rgb(255, 0, 0); fill-opacity: 1; visibility: visible; white-space: pre;">16</text></g></g></g></g><g class="subplot xy2"/></g><g class="ternarylayer"/><g class="geolayer"/><g class="layer-above"><g class="imagelayer"/><g class="shapelayer"/></g><g class="pielayer"/><g class="glimages"/><defs id="topdefs-6bba99"><clipPath id="legend6bba99"><rect width="99" height="67" x="0" y="0"/></clipPath></defs><g class="infolayer"><g class="g-gtitle"/><g class="g-xtitle"/><g class="g-ytitle" data-bb="80"/><g class="g-y2title" data-bb="88"><text class="y2title" transform="rotate(-90,722,292.5) translate(0, 0)" x="722" y="292.5" text-anchor="middle" style="font-family: 'Open Sans', verdana, arial, sans-serif; font-size: 14px; fill: rgb(68, 68, 68); opacity: 1; font-weight: normal; white-space: pre; visibility: visible;">Y-o-y % changes</text></g><g class="legend" pointer-events="all" transform="translate(689.34, 25)"><rect class="bg" shape-rendering="crispEdges" style="stroke: rgb(68, 68, 68); stroke-opacity: 1; fill: rgb(255, 255, 255); fill-opacity: 1; stroke-width: 0px;" width="99" height="67" x="0" y="0"/><g class="scrollbox" transform="translate(0, 0)" clip-path="url(#legend6bba99)"><g class="groups"><g class="traces" transform="translate(0, 14.5)" style="opacity: 1;"><g class="layers" style="opacity: 1;"><g class="legendfill"/><g class="legendlines"><path class="js-line" d="M5,0h30" style="fill: none; stroke: rgb(98, 188, 96); stroke-opacity: 1; stroke-width: 2px;"/></g><g class="legendsymbols"><g class="legendpoints"/></g></g><text class="legendtext user-select-none" x="40" y="4.680000000000001" style="text-anchor: start; font-family: 'Open Sans', verdana, arial, sans-serif; font-size: 12px; fill: rgb(68, 68, 68); fill-opacity: 1; white-space: pre; visibility: visible;" data-bb="96">&#60;-- Total</text><rect class="legendtoggle" pointer-events="all" style="cursor: pointer; fill: rgb(0, 0, 0); fill-opacity: 0;" x="0" y="-9.5" width="139" height="19"/></g><g class="traces" transform="translate(0, 33.5)" style="opacity: 1;"><g class="layers" style="opacity: 1;"><g class="legendfill"/><g class="legendlines"><path class="js-line" d="M5,0h30" style="fill: none; stroke: rgb(0, 123, 189); stroke-opacity: 1; stroke-width: 2px;"/></g><g class="legendsymbols"><g class="legendpoints"/></g></g><text class="legendtext user-select-none" x="40" y="4.680000000000001" style="text-anchor: start; font-family: 'Open Sans', verdana, arial, sans-serif; font-size: 12px; fill: rgb(68, 68, 68); fill-opacity: 1; white-space: pre; visibility: visible;" data-bb="97">&#60;-- Other</text><rect class="legendtoggle" pointer-events="all" style="cursor: pointer; fill: rgb(0, 0, 0); fill-opacity: 0;" x="0" y="-9.5" width="139" height="19"/></g><g class="traces" transform="translate(0, 52.5)" style="opacity: 1;"><g class="layers" style="opacity: 1;"><g class="legendfill"/><g class="legendlines"><path class="js-line" d="M5,0h30" style="fill: none; stroke: rgb(238, 66, 71); stroke-opacity: 1; stroke-width: 2px;"/></g><g class="legendsymbols"><g class="legendpoints"/></g></g><text class="legendtext user-select-none" x="40" y="4.680000000000001" style="text-anchor: start; font-family: 'Open Sans', verdana, arial, sans-serif; font-size: 12px; fill: rgb(68, 68, 68); fill-opacity: 1; white-space: pre; visibility: visible;" data-bb="98">Mining --></text><rect class="legendtoggle" pointer-events="all" x="0" y="-9.5" width="139" height="19" style="cursor: pointer; fill: rgb(0, 0, 0); fill-opacity: 0;"/></g></g></g><rect class="scrollbar" rx="20" ry="2" width="0" height="0" style="fill: rgb(128, 139, 164); fill-opacity: 1;"/></g></g></svg>