<svg class="main-svg" xmlns="http://www.w3.org/2000/svg" xmlns:xlink="http://www.w3.org/1999/xlink" width="800" height="480"><rect x="0" y="0" width="800" height="480" style="fill: rgb(255, 255, 255); fill-opacity: 1;"/><defs id="defs-5aaf1e"><g class="gradients"/><g class="clips"><clipPath class="axesclip" id="clip5aaf1ex"><rect x="60" y="0" width="617" height="480"/></clipPath><clipPath class="axesclip" id="clip5aaf1ey"><rect x="0" y="25" width="800" height="415"/></clipPath><clipPath class="axesclip" id="clip5aaf1exy"><rect x="60" y="25" width="617" height="415"/></clipPath><clipPath class="axesclip" id="clip5aaf1ey2"><rect x="0" y="25" width="800" height="415"/></clipPath><clipPath class="axesclip" id="clip5aaf1exy2"><rect x="60" y="25" width="617" height="415"/></clipPath><clipPath class="plotclip" id="clip5aaf1exyplot"><rect width="617" height="415"/></clipPath><clipPath class="plotclip" id="clip5aaf1exy2plot"><rect width="617" height="415"/></clipPath></g></defs><g class="bglayer"><rect class="bg" x="60" y="25" width="617" height="415" style="fill: rgb(255, 255, 255); fill-opacity: 1; stroke-width: 0;"/></g><g class="layer-below"><g class="imagelayer"/><g class="shapelayer"/></g><g class="cartesianlayer"><g class="subplot xy"><g class="layer-subplot"><g class="shapelayer"/><g class="imagelayer"/></g><g class="gridlayer" transform="translate(60,25)"><path class="xgrid crisp" d="M0,0v415" transform="translate(85.38,0)" style="stroke: rgb(238, 238, 238); stroke-opacity: 1; stroke-width: 1px;"/><path class="xgrid crisp" d="M0,0v415" transform="translate(172.18,0)" style="stroke: rgb(238, 238, 238); stroke-opacity: 1; stroke-width: 1px;"/><path class="xgrid crisp" d="M0,0v415" transform="translate(257.56,0)" style="stroke: rgb(238, 238, 238); stroke-opacity: 1; stroke-width: 1px;"/><path class="xgrid crisp" d="M0,0v415" transform="translate(344.35,0)" style="stroke: rgb(238, 238, 238); stroke-opacity: 1; stroke-width: 1px;"/><path class="xgrid crisp" d="M0,0v415" transform="translate(429.73,0)" style="stroke: rgb(238, 238, 238); stroke-opacity: 1; stroke-width: 1px;"/><path class="xgrid crisp" d="M0,0v415" transform="translate(516.53,0)" style="stroke: rgb(238, 238, 238); stroke-opacity: 1; stroke-width: 1px;"/><path class="xgrid crisp" d="M0,0v415" transform="translate(602.38,0)" style="stroke: rgb(238, 238, 238); stroke-opacity: 1; stroke-width: 1px;"/><path class="ygrid crisp" d="M0,0h617" transform="translate(0,345.83)" style="stroke: rgb(238, 238, 238); stroke-opacity: 1; stroke-width: 1px;"/><path class="ygrid crisp" d="M0,0h617" transform="translate(0,207.5)" style="stroke: rgb(238, 238, 238); stroke-opacity: 1; stroke-width: 1px;"/><path class="ygrid crisp" d="M0,0h617" transform="translate(0,138.33)" style="stroke: rgb(238, 238, 238); stroke-opacity: 1; stroke-width: 1px;"/><path class="ygrid crisp" d="M0,0h617" transform="translate(0,69.17)" style="stroke: rgb(238, 238, 238); stroke-opacity: 1; stroke-width: 1px;"/></g><g class="overgrid"><g class="xy2" transform="translate(60,25)"><path class="xgrid crisp" d="M0,0v415" transform="translate(85.38,0)" style="stroke: rgb(238, 238, 238); stroke-opacity: 1; stroke-width: 1px;"/><path class="xgrid crisp" d="M0,0v415" transform="translate(172.18,0)" style="stroke: rgb(238, 238, 238); stroke-opacity: 1; stroke-width: 1px;"/><path class="xgrid crisp" d="M0,0v415" transform="translate(257.56,0)" style="stroke: rgb(238, 238, 238); stroke-opacity: 1; stroke-width: 1px;"/><path class="xgrid crisp" d="M0,0v415" transform="translate(344.35,0)" style="stroke: rgb(238, 238, 238); stroke-opacity: 1; stroke-width: 1px;"/><path class="xgrid crisp" d="M0,0v415" transform="translate(429.73,0)" style="stroke: rgb(238, 238, 238); stroke-opacity: 1; stroke-width: 1px;"/><path class="xgrid crisp" d="M0,0v415" transform="translate(516.53,0)" style="stroke: rgb(238, 238, 238); stroke-opacity: 1; stroke-width: 1px;"/><path class="xgrid crisp" d="M0,0v415" transform="translate(602.38,0)" style="stroke: rgb(238, 238, 238); stroke-opacity: 1; stroke-width: 1px;"/><path class="y2grid crisp" d="M0,0h617" transform="translate(0,345.83)" style="stroke: rgb(238, 238, 238); stroke-opacity: 1; stroke-width: 1px;"/><path class="y2grid crisp" d="M0,0h617" transform="translate(0,207.5)" style="stroke: rgb(238, 238, 238); stroke-opacity: 1; stroke-width: 1px;"/><path class="y2grid crisp" d="M0,0h617" transform="translate(0,138.33)" style="stroke: rgb(238, 238, 238); stroke-opacity: 1; stroke-width: 1px;"/><path class="y2grid crisp" d="M0,0h617" transform="translate(0,69.17)" style="stroke: rgb(238, 238, 238); stroke-opacity: 1; stroke-width: 1px;"/></g></g><g class="zerolinelayer" transform="translate(60,25)"><path class="yzl zl crisp" d="M0,0h617" transform="translate(0,276.67)" style="stroke: rgb(68, 68, 68); stroke-opacity: 1; stroke-width: 1px;"/></g><g class="overzero"><g class="xy2" transform="translate(60,25)"><path class="y2zl zl crisp" d="M0,0h617" transform="translate(0,276.67)" style="stroke: rgb(68, 68, 68); stroke-opacity: 1; stroke-width: 1px;"/></g></g><g class="plot" transform="translate(60, 25)" clip-path="url(#clip5aaf1exyplot)"><g class="imagelayer"/><g class="maplayer"/><g class="barlayer"/><g class="carpetlayer"/><g class="boxlayer"/><g class="scatterlayer"><g class="trace scatter traceb24ee2" style="stroke-miterlimit: 2; opacity: 1;"><path class="js-line" d="M0,194.54L14.62,153.8L27.83,141L42.45,156.01L56.61,140.02L71.23,168.69L85.38,140.77L100,106.75L114.63,75.1L128.78,41.37L143.4,56.87L157.55,88.82L172.18,118.38L186.8,103.28L200.01,117.53L214.63,103.21L228.78,85.12L243.4,42.26L257.56,85.18L272.18,124.97L286.8,123.26L300.95,130.19L315.58,149.23L329.73,100.62L344.35,131.8L358.97,172.23L372.18,186.51L386.8,216.04L400.96,258.22L415.58,243.25L429.73,217.35L444.35,187.42L458.98,243.21L473.13,255.4L487.75,225.7L501.9,232.3L516.53,169.77L531.15,172.85L544.83,185.31L559.45,167.95L573.6,200.71L588.23,193.8L602.38,191.77L617,187.88" style="vector-effect: non-scaling-stroke; fill: none; stroke: rgb(98, 188, 96); stroke-opacity: 1; stroke-width: 2px; opacity: 1;"/><g class="points"/></g><g class="trace scatter trace8b44ea" style="stroke-miterlimit: 2; opacity: 1;"><path class="js-line" d="M0,169.14L14.62,154.05L27.83,146.68L42.45,156.08L56.61,136.22L71.23,173.57L85.38,167.73L100,150.32L114.63,115.45L128.78,77.71L143.4,78.79L157.55,109.98L172.18,144.9L186.8,129.19L200.01,148.07L214.63,147.64L228.78,132.5L243.4,96.48L257.56,112.39L272.18,123.64L286.8,143.15L300.95,152.86L315.58,167.79L329.73,108.87L344.35,128.44L358.97,152.7L372.18,146.39L386.8,161.09L400.96,208.04L415.58,202.22L429.73,205.06L444.35,195.17L458.98,212.54L473.13,216.1L487.75,200.23L501.9,216.52L516.53,163.29L531.15,167.39L544.83,175.45L559.45,156.91L573.6,157.14L588.23,153.24L602.38,159.14L617,162.43" style="vector-effect: non-scaling-stroke; fill: none; stroke: rgb(0, 123, 189); stroke-opacity: 1; stroke-width: 2px; opacity: 1;"/><g class="points"/></g></g></g><g class="overplot"><g class="xy2" transform="translate(60, 25)" clip-path="url(#clip5aaf1exy2plot)"><g class="imagelayer"/><g class="maplayer"/><g class="barlayer"/><g class="carpetlayer"/><g class="boxlayer"/><g class="scatterlayer"><g class="trace scatter trace34d45c" style="stroke-miterlimit: 2; opacity: 1;"><path class="js-line" d="M0,325.96L14.62,245.24L27.83,226.61L42.45,246.29L56.61,253.38L71.23,235.5L85.38,162.71L100,102.88L114.63,105.11L128.78,110.79L143.4,158.22L157.55,168.54L172.18,160.9L186.8,160.37L200.01,151.06L214.63,107.05L228.78,92.37L243.4,62.01L257.56,151.88L272.18,242.44L286.8,182.73L300.95,177.34L315.58,193.05L329.73,209.66L344.35,249.67L358.97,303.2L372.18,361.16L386.8,406.37L400.96,405.32L415.58,376.1L429.73,295L444.35,232.7L458.98,351.19L473.13,375.98L487.75,332.74L501.9,308.92L516.53,267.82L531.15,265.91L544.83,282.01L559.45,281.48L573.6,383.94L588.23,370.22L602.38,345.41L617,324.68" style="vector-effect: non-scaling-stroke; fill: none; stroke: rgb(238, 66, 71); stroke-opacity: 1; stroke-width: 2px; opacity: 1;"/><g class="points"/></g></g></g></g><path class="xlines crisp" transform="translate(60,25)" d="M-1,415.5h619" style="fill: none; stroke-width: 1px; stroke: rgb(0, 0, 0); stroke-opacity: 0;"/><path class="ylines crisp" transform="translate(60,25)" d="M-0.5,-1v416" stroke-width="1px" style="fill: none; stroke: rgb(0, 0, 0); stroke-opacity: 0;"/><g class="overlines"><path class="xy2 crisp" transform="translate(60,25)" d="M617.5,-1v417" stroke-width="1px" style="fill: none; stroke-width: 1px; stroke: rgb(0, 0, 0); stroke-opacity: 0;"/></g><g class="xaxislayer" transform="translate(60,25)"><g class="xtick"><text text-anchor="middle" x="0" y="429" transform="translate(0,0)" style="font-family: 'Open Sans', verdana, arial, sans-serif; font-size: 12px; fill: rgb(68, 68, 68); fill-opacity: 1; visibility: visible; white-space: pre;" data-bb="72">Jan 2013</text></g><g class="xtick"><text text-anchor="middle" x="0" y="429" transform="translate(85.38,0)" style="font-family: 'Open Sans', verdana, arial, sans-serif; font-size: 12px; fill: rgb(68, 68, 68); fill-opacity: 1; visibility: visible; white-space: pre;" data-bb="73">Jul 2013</text></g><g class="xtick"><text text-anchor="middle" x="0" y="429" transform="translate(172.18,0)" style="font-family: 'Open Sans', verdana, arial, sans-serif; font-size: 12px; fill: rgb(68, 68, 68); fill-opacity: 1; visibility: visible; white-space: pre;" data-bb="74">Jan 2014</text></g><g class="xtick"><text text-anchor="middle" x="0" y="429" transform="translate(257.56,0)" style="font-family: 'Open Sans', verdana, arial, sans-serif; font-size: 12px; fill: rgb(68, 68, 68); fill-opacity: 1; visibility: visible; white-space: pre;" data-bb="75">Jul 2014</text></g><g class="xtick"><text text-anchor="middle" x="0" y="429" transform="translate(344.35,0)" style="font-family: 'Open Sans', verdana, arial, sans-serif; font-size: 12px; fill: rgb(68, 68, 68); fill-opacity: 1; visibility: visible; white-space: pre;" data-bb="76">Jan 2015</text></g><g class="xtick"><text text-anchor="middle" x="0" y="429" transform="translate(429.73,0)" style="font-family: 'Open Sans', verdana, arial, sans-serif; font-size: 12px; fill: rgb(68, 68, 68); fill-opacity: 1; visibility: visible; white-space: pre;" data-bb="77">Jul 2015</text></g><g class="xtick"><text text-anchor="middle" x="0" y="429" transform="translate(516.53,0)" style="font-family: 'Open Sans', verdana, arial, sans-serif; font-size: 12px; fill: rgb(68, 68, 68); fill-opacity: 1; visibility: visible; white-space: pre;" data-bb="78">Jan 2016</text></g><g class="xtick"><text text-anchor="middle" x="0" y="429" transform="translate(602.38,0)" style="font-family: 'Open Sans', verdana, arial, sans-serif; font-size: 12px; fill: rgb(68, 68, 68); fill-opacity: 1; visibility: visible; white-space: pre;" data-bb="79">Jul 2016</text></g></g><g class="yaxislayer" transform="translate(60,25)"><g class="ytick" data-bb="81"><text text-anchor="end" x="-2" y="6" transform="translate(0,415)" style="font-family: 'Open Sans', verdana, arial, sans-serif; font-size: 12px; fill: rgb(68, 68, 68); fill-opacity: 1; visibility: visible; white-space: pre;">−2</text></g><g class="ytick" data-bb="82"><text text-anchor="end" x="-2" y="6" transform="translate(0,345.83)" style="font-family: 'Open Sans', verdana, arial, sans-serif; font-size: 12px; fill: rgb(68, 68, 68); fill-opacity: 1; visibility: visible; white-space: pre;">−1</text></g><g class="ytick" data-bb="83"><text text-anchor="end" x="-2" y="6" transform="translate(0,276.67)" style="font-family: 'Open Sans', verdana, arial, sans-serif; font-size: 12px; fill: rgb(68, 68, 68); fill-opacity: 1; visibility: visible; white-space: pre;">0</text></g><g class="ytick" data-bb="84"><text text-anchor="end" x="-2" y="6" transform="translate(0,207.5)" style="font-family: 'Open Sans', verdana, arial, sans-serif; font-size: 12px; fill: rgb(68, 68, 68); fill-opacity: 1; visibility: visible; white-space: pre;">1</text></g><g class="ytick" data-bb="85"><text text-anchor="end" x="-2" y="6" transform="translate(0,138.33)" style="font-family: 'Open Sans', verdana, arial, sans-serif; font-size: 12px; fill: rgb(68, 68, 68); fill-opacity: 1; visibility: visible; white-space: pre;">2</text></g><g class="ytick" data-bb="86"><text text-anchor="end" x="-2" y="6" transform="translate(0,69.17)" style="font-family: 'Open Sans', verdana, arial, sans-serif; font-size: 12px; fill: rgb(68, 68, 68); fill-opacity: 1; visibility: visible; white-space: pre;">3</text></g><g class="ytick" data-bb="87"><text text-anchor="end" x="-2" y="6" transform="translate(0,0)" style="font-family: 'Open Sans', verdana, arial, sans-serif; font-size: 12px; fill: rgb(68, 68, 68); fill-opacity: 1; visibility: visible; white-space: pre;">4</text></g></g><g class="overaxes"><g class="xy2" transform="translate(60,25)"><g class="y2tick" data-bb="89"><text text-anchor="start" x="619" y="6" transform="translate(0,415)" style="font-family: 'Open Sans', verdana, arial, sans-serif; font-size: 12px; fill: rgb(255, 0, 0); fill-opacity: 1; visibility: visible; white-space: pre;">−8</text></g><g class="y2tick" data-bb="90"><text text-anchor="start" x="619" y="6" transform="translate(0,345.83)" style="font-family: 'Open Sans', verdana, arial, sans-serif; font-size: 12px; fill: rgb(255, 0, 0); fill-opacity: 1; visibility: visible; white-space: pre;">−4</text></g><g class="y2tick" data-bb="91"><text text-anchor="start" x="619" y="6" transform="translate(0,276.67)" style="font-family: 'Open Sans', verdana, arial, sans-serif; font-size: 12px; fill: rgb(255, 0, 0); fill-opacity: 1; visibility: visible; white-space: pre;">0</text></g><g class="y2tick" data-bb="92"><text text-anchor="start" x="619" y="6" transform="translate(0,207.5)" style="font-family: 'Open Sans', verdana, arial, sans-serif; font-size: 12px; fill: rgb(255, 0, 0); fill-opacity: 1; visibility: visible; white-space: pre;">4</text></g><g class="y2tick" data-bb="93"><text text-anchor="start" x="619" y="6" transform="translate(0,138.33)" style="font-family: 'Open Sans', verdana, arial, sans-serif; font-size: 12px; fill: rgb(255, 0, 0); fill-opacity: 1; visibility: visible; white-space: pre;">8</text></g><g class="y2tick" data-bb="94"><text text-anchor="start" x="619" y="6" transform="translate(0,69.17)" style="font-family: 'Open Sans', verdana, arial, sans-serif; font-size: 12px; fill: rgb(255, 0, 0); fill-opacity: 1; visibility: visible; white-space: pre;">12</text></g><g class="y2tick" data-bb="95"><text text-anchor="start" x="619" y="6" transform="translate(0,0)" style="font-family: 'Open Sans', verdana, arial, sans-serif; font-size: 12px; fill: rgb(255, 0, 0); fill-opacity: 1; visibility: visible; white-space: pre;">16</text></g></g></g></g><g class="subplot xy2"/></g><g class="ternarylayer"/><g class="geolayer"/><g class="layer-above"><g class="imagelayer"/><g class="shapelayer"/></g><g class="pielayer"/><g class="glimages"/><defs id="topdefs-5aaf1e"><clipPath id="legend5aaf1e"><rect width="99" height="67" x="0" y="0"/></clipPath></defs><g class="infolayer"><g class="g-gtitle"/><g class="g-xtitle"/><g class="g-ytitle" data-bb="80"/><g class="g-y2title" data-bb="88"><text class="y2title" transform="rotate(-90,722,232.5) translate(0, 0)" x="722" y="232.5" text-anchor="middle" style="font-family: 'Open Sans', verdana, arial, sans-serif; font-size: 14px; fill: rgb(68, 68, 68); opacity: 1; font-weight: normal; white-space: pre; visibility: visible;">Y-o-y % changes</text></g><g class="legend" pointer-events="all" transform="translate(689.34, 25)"><rect class="bg" shape-rendering="crispEdges" style="stroke: rgb(68, 68, 68); stroke-opacity: 1; fill: rgb(255, 255, 255); fill-opacity: 1; stroke-width: 0px;" width="99" height="67" x="0" y="0"/><g class="scrollbox" transform="translate(0, 0)" clip-path="url(#legend5aaf1e)"><g class="groups"><g class="traces" transform="translate(0, 14.5)" style="opacity: 1;"><g class="layers" style="opacity: 1;"><g class="legendfill"/><g class="legendlines"><path class="js-line" d="M5,0h30" style="fill: none; stroke: rgb(98, 188, 96); stroke-opacity: 1; stroke-width: 2px;"/></g><g class="legendsymbols"><g class="legendpoints"/></g></g><text class="legendtext user-select-none" x="40" y="4.680000000000001" style="text-anchor: start; font-family: 'Open Sans', verdana, arial, sans-serif; font-size: 12px; fill: rgb(68, 68, 68); fill-opacity: 1; white-space: pre; visibility: visible;" data-bb="96">&#60;-- Total</text><rect class="legendtoggle" pointer-events="all" style="cursor: pointer; fill: rgb(0, 0, 0); fill-opacity: 0;" x="0" y="-9.5" width="139" height="19"/></g><g class="traces" transform="translate(0, 33.5)" style="opacity: 1;"><g class="layers" style="opacity: 1;"><g class="legendfill"/><g class="legendlines"><path class="js-line" d="M5,0h30" style="fill: none; stroke: rgb(0, 123, 189); stroke-opacity: 1; stroke-width: 2px;"/></g><g class="legendsymbols"><g class="legendpoints"/></g></g><text class="legendtext user-select-none" x="40" y="4.680000000000001" style="text-anchor: start; font-family: 'Open Sans', verdana, arial, sans-serif; font-size: 12px; fill: rgb(68, 68, 68); fill-opacity: 1; white-space: pre; visibility: visible;" data-bb="97">&#60;-- Other</text><rect class="legendtoggle" pointer-events="all" style="cursor: pointer; fill: rgb(0, 0, 0); fill-opacity: 0;" x="0" y="-9.5" width="139" height="19"/></g><g class="traces" transform="translate(0, 52.5)" style="opacity: 1;"><g class="layers" style="opacity: 1;"><g class="legendfill"/><g class="legendlines"><path class="js-line" d="M5,0h30" style="fill: none; stroke: rgb(238, 66, 71); stroke-opacity: 1; stroke-width: 2px;"/></g><g class="legendsymbols"><g class="legendpoints"/></g></g><text class="legendtext user-select-none" x="40" y="4.680000000000001" style="text-anchor: start; font-family: 'Open Sans', verdana, arial, sans-serif; font-size: 12px; fill: rgb(68, 68, 68); fill-opacity: 1; white-space: pre; visibility: visible;" data-bb="98">Mining --></text><rect class="legendtoggle" pointer-events="all" x="0" y="-9.5" width="139" height="19" style="cursor: pointer; fill: rgb(0, 0, 0); fill-opacity: 0;"/></g></g></g><rect class="scrollbar" rx="20" ry="2" width="0" height="0" style="fill: rgb(128, 139, 164); fill-opacity: 1;"/></g></g></svg>